<?xml version="1.0" standalone="no"?>
<!DOCTYPE svg PUBLIC "-//W3C//DTD SVG 20010904//EN"
 "http://www.w3.org/TR/2001/REC-SVG-20010904/DTD/svg10.dtd">
<svg version="1.0" xmlns="http://www.w3.org/2000/svg"
 width="270.000000pt" height="270.000000pt" viewBox="0 0 270.000000 270.000000"
 preserveAspectRatio="xMidYMid meet">
<metadata>
Created by potrace 1.14, written by Peter Selinger 2001-2017
</metadata>
<g transform="translate(0.000000,270.000000) scale(0.100000,-0.100000)"
fill="#000000" stroke="none">
<path d="M440 2262 c-6 -2 -10 -28 -10 -58 l0 -54 33 0 c106 -1 158 -42 199
-160 15 -41 95 -271 178 -510 83 -239 167 -478 185 -530 18 -52 68 -194 110
-315 93 -270 96 -278 107 -290 5 -5 50 -10 100 -10 l91 0 15 35 c14 33 144
403 183 520 10 30 28 82 40 115 12 33 56 161 99 285 137 393 247 704 262 740
36 83 91 120 183 120 l40 0 -3 55 c-2 30 -7 55 -10 56 -4 0 -148 1 -320 2
-200 1 -316 -2 -320 -8 -4 -5 -7 -31 -8 -56 l0 -47 78 -4 c87 -5 122 -23 147
-73 30 -62 28 -68 -228 -808 -105 -302 -171 -516 -187 -605 -3 -14 -9 -33 -14
-41 -8 -14 -10 -13 -10 4 -2 25 -2 26 -40 170 -17 66 -83 275 -147 465 -64
190 -145 430 -180 533 -35 103 -63 203 -63 221 0 95 49 133 171 135 l47 1 4
46 c2 25 0 50 -3 56 -5 8 -119 11 -363 12 -196 1 -361 0 -366 -2z"/>
</g>
</svg>
